<svg width="877" height="694" viewBox="0 0 877 694" fill="none" xmlns="http://www.w3.org/2000/svg">
<path d="M79.1788 512.89C86.3621 496.55 102.524 486 120.374 486H755.691C773.507 486 789.646 496.511 796.849 512.807L848.567 629.807C861.717 659.556 839.934 693 807.408 693H68.939C36.4528 693 14.6702 659.629 27.744 629.89L79.1788 512.89Z" fill="white"/>
<path d="M79.1788 512.89C86.3621 496.55 102.524 486 120.374 486H755.691C773.507 486 789.646 496.511 796.849 512.807L848.567 629.807C861.717 659.556 839.934 693 807.408 693H68.939C36.4528 693 14.6702 659.629 27.744 629.89L79.1788 512.89Z" fill="white"/>
<path d="M116.179 532.399L105.445 561.99C102.059 571.324 103.735 581.744 109.877 589.546C115.322 596.463 123.638 600.5 132.441 600.5H287.169C293.305 600.5 299.357 599.071 304.846 596.327C314.815 591.342 322.217 582.38 325.227 571.648L327.768 562.587C330.481 552.914 336.869 544.687 345.567 539.661C351.419 536.28 358.058 534.5 364.817 534.5H544.269C551.167 534.5 557.809 537.108 562.863 541.802C566.863 545.515 569.658 550.341 570.89 555.658L574.787 572.474C577.146 582.657 583.792 591.323 593.015 596.242C598.258 599.037 604.108 600.5 610.049 600.5H750.62C760.339 600.5 769.208 594.966 773.48 586.237C776.379 580.312 776.865 573.492 774.835 567.216L765.331 537.843C762.838 530.134 758.034 523.379 751.571 518.493C744.712 513.306 736.347 510.5 727.747 510.5H147.418C138.22 510.5 129.434 514.312 123.15 521.029C120.082 524.309 117.71 528.177 116.179 532.399Z" fill="#F5F5F5"/>
<path d="M350.116 612.231L356.824 571.194C357.577 566.589 360.135 562.475 363.931 559.763C366.903 557.641 370.463 556.5 374.114 556.5H528.394C532.016 556.5 535.524 557.77 538.306 560.089C541.322 562.602 543.271 566.167 543.758 570.063L548.899 611.189C549.284 614.272 548.442 617.383 546.555 619.851C544.314 622.781 540.836 624.5 537.148 624.5H360.542C356.799 624.5 353.335 622.519 351.436 619.292C350.185 617.165 349.718 614.667 350.116 612.231Z" fill="#F5F5F5"/>
<path d="M808 693.019L67.9996 693.019C67.9996 693.019 39.3346 691.936 30 680.5C22.4134 671.205 23.879 647.5 23.879 647.5L852.5 647.5C852.5 647.5 852.365 672.632 844.5 682C835.062 693.241 808 693.019 808 693.019Z" fill="#F5F5F5"/>
<path d="M116 436V50C116 36.1929 127.193 25 141 25H735C748.807 25 760 36.1929 760 50V436C760 449.807 748.807 461 735 461H141C127.193 461 116 449.807 116 436Z" fill="#55ACEE" stroke="white" stroke-width="50"/>
<path d="M191 120C191 92.3858 213.386 70 241 70H635C662.614 70 685 92.3858 685 120V366C685 393.614 662.614 416 635 416H241C213.386 416 191 393.614 191 366V120Z" fill="white"/>
<path d="M191 102.037C191 84.3435 205.341 70 223.032 70H652.968C670.659 70 685 84.3435 685 102.037V383.963C685 401.657 670.659 416 652.968 416H223.032C205.341 416 191 401.657 191 383.963V102.037Z" fill="white"/>
<path fill-rule="evenodd" clip-rule="evenodd" d="M635 70H652.968C670.647 70 684.98 84.3235 685 102H191C191.02 84.3235 205.353 70 223.032 70H241H635ZM191 102C191 102.012 191 102.025 191 102.037Z" fill="#F5F5F5"/>
</svg>
